<?xml version="1.0" standalone="no"?>
<!DOCTYPE svg PUBLIC "-//W3C//DTD SVG 20010904//EN"
 "http://www.w3.org/TR/2001/REC-SVG-20010904/DTD/svg10.dtd">
<svg version="1.0" xmlns="http://www.w3.org/2000/svg"
 width="50.000000pt" height="50.000000pt" viewBox="0 0 50.000000 50.000000"
 preserveAspectRatio="xMidYMid meet">

<g transform="translate(0.000000,50.000000) scale(0.100000,-0.100000)"
fill="#000000" stroke="none">
<path d="M220 446 c-46 -15 -77 -64 -85 -134 -3 -31 -10 -67 -15 -79 -10 -25
2 -39 39 -45 41 -5 33 -22 -26 -53 -55 -29 -91 -71 -74 -88 4 -4 93 -6 197 -5
183 3 189 4 186 23 -6 30 -31 54 -84 77 -50 22 -60 35 -30 44 61 20 59 15 49
100 -11 94 -28 131 -65 140 -15 4 -34 12 -42 19 -12 10 -23 10 -50 1z m45 -16
c3 -5 16 -10 29 -10 38 0 57 -32 67 -116 11 -89 8 -104 -23 -104 -31 0 -50
-14 -43 -31 3 -8 -6 -27 -20 -44 l-25 -30 -25 30 c-14 17 -22 37 -19 47 4 13
-2 19 -23 24 -52 11 -52 11 -47 51 14 103 27 147 50 169 24 24 68 32 79 14z
m-52 -310 c18 -30 14 -36 -17 -24 -16 6 -23 54 -8 54 4 0 16 -13 25 -30z m107
6 c0 -16 -7 -27 -21 -31 -30 -10 -32 -2 -8 28 25 33 29 33 29 3z m-155 -16 c8
-25 48 -36 117 -32 26 2 53 21 60 44 9 26 88 -25 88 -56 0 -3 -81 -6 -180 -6
-99 0 -180 4 -180 8 0 21 50 61 77 62 6 0 15 -9 18 -20z"/>
</g>
</svg>
